<?xml version="1.0" encoding="UTF-8" standalone="no"?>
<!DOCTYPE svg PUBLIC "-//W3C//DTD SVG 1.1//EN" "http://www.w3.org/Graphics/SVG/1.1/DTD/svg11.dtd">
<svg width="100%" height="100%" viewBox="0 0 269 203" version="1.1" xmlns="http://www.w3.org/2000/svg" xmlns:xlink="http://www.w3.org/1999/xlink" xml:space="preserve" xmlns:serif="http://www.serif.com/" style="fill-rule:evenodd;clip-rule:evenodd;stroke-linecap:round;stroke-linejoin:round;stroke-miterlimit:1.5;">
    <g transform="matrix(1,0,0,1,-515.75,-854.75)">
        <g id="img">
        </g>
        <g id="video">
        </g>
        <g id="pdf">
        </g>
        <g id="h5p">
        </g>
        <g id="quiz">
        </g>
        <g id="sim">
        </g>
        <g id="audio" transform="matrix(1,0,0,1,327,0)">
            <path d="M451,889.668L451,1022.332C451,1038.154 438.154,1051 422.332,1051L223.668,1051C207.846,1051 195,1038.154 195,1022.332L195,889.668C195,873.846 207.846,861 223.668,861L422.332,861C438.154,861 451,873.846 451,889.668Z" style="fill:white;stroke:rgb(68,56,200);stroke-width:12.5px;"/>
            <g transform="matrix(1,0,0,1,1.609308,-0.5)">
                <g transform="matrix(0.863014,0,0,1,-262.986301,-12)">
                    <path d="M679,917L679,1020L606,997L606,940L679,917Z" style="fill:rgb(177,171,245);stroke:rgb(68,56,200);stroke-width:13.38px;"/>
                </g>
                <g transform="matrix(1,0,0,0.919355,-346,63.806452)">
                    <rect x="578" y="940" width="27" height="62" style="fill:rgb(177,171,245);stroke:rgb(68,56,200);stroke-width:13.01px;"/>
                </g>
                <g transform="matrix(1,0,0,1,-299,0)">
                    <path d="M705,921C711.616,945.667 711.129,970.333 705,995" style="fill:none;stroke:rgb(68,56,200);stroke-width:12.5px;"/>
                </g>
                <g transform="matrix(0.675676,0,0,0.675676,-97.043828,310.702703)">
                    <path d="M705,921C711.616,945.667 711.129,970.333 705,995" style="fill:none;stroke:rgb(68,56,200);stroke-width:18.5px;"/>
                </g>
                <g transform="matrix(0.378378,0,0,0.378378,85.261513,595.513514)">
                    <path d="M705,921C711.616,945.667 711.129,970.333 705,995" style="fill:none;stroke:rgb(68,56,200);stroke-width:33.04px;"/>
                </g>
            </g>
            <path d="M451,889.668L451,1022.332C451,1038.154 438.154,1051 422.332,1051L223.668,1051C207.846,1051 195,1038.154 195,1022.332L195,889.668C195,873.846 207.846,861 223.668,861L422.332,861C438.154,861 451,873.846 451,889.668Z" style="fill:none;stroke:rgb(68,56,200);stroke-width:12.5px;"/>
        </g>
    </g>
</svg>
