<?xml version="1.0" encoding="UTF-8" standalone="no"?>
<!DOCTYPE svg PUBLIC "-//W3C//DTD SVG 1.1//EN" "http://www.w3.org/Graphics/SVG/1.1/DTD/svg11.dtd">
<svg width="100%" height="100%" viewBox="0 0 269 203" version="1.1" xmlns="http://www.w3.org/2000/svg" xmlns:xlink="http://www.w3.org/1999/xlink" xml:space="preserve" xmlns:serif="http://www.serif.com/" style="fill-rule:evenodd;clip-rule:evenodd;stroke-linecap:round;stroke-linejoin:round;stroke-miterlimit:1.5;">
    <g transform="matrix(1,0,0,1,-1489.077462,-854.75)">
        <g id="img">
        </g>
        <g id="video">
        </g>
        <g id="pdf">
        </g>
        <g id="h5p" transform="matrix(1,0,0,1,1300.327462,0)">
            <path d="M451,889.668L451,1022.332C451,1038.154 438.154,1051 422.332,1051L223.668,1051C207.846,1051 195,1038.154 195,1022.332L195,889.668C195,873.846 207.846,861 223.668,861L422.332,861C438.154,861 451,873.846 451,889.668Z" style="fill:rgb(177,171,245);stroke:rgb(68,56,200);stroke-width:12.5px;"/>
            <g transform="matrix(1,0,0,1,-0.394685,-2.095833)">
                <g transform="matrix(1.446731,0,0,2.421007,-1623.865003,-1490.013495)">
                    <path d="M1285.191,1028.483C1283.537,1028.483 1282.27,1028.204 1281.389,1027.646C1280.509,1027.088 1280.069,1026.314 1280.069,1025.326L1280.069,997.157C1280.069,996.136 1280.509,995.355 1281.389,994.813C1282.27,994.271 1283.537,994 1285.191,994C1286.845,994 1288.112,994.271 1288.993,994.813C1289.873,995.355 1290.313,996.136 1290.313,997.157L1290.313,1008.443L1319.365,1008.443L1319.365,997.157C1319.365,996.136 1319.806,995.355 1320.686,994.813C1321.566,994.271 1322.834,994 1324.488,994C1326.142,994 1327.409,994.271 1328.289,994.813C1329.17,995.355 1329.61,996.136 1329.61,997.157L1329.61,1025.326C1329.61,1026.314 1329.17,1027.088 1328.289,1027.646C1327.409,1028.204 1326.142,1028.483 1324.488,1028.483C1322.834,1028.483 1321.566,1028.204 1320.686,1027.646C1319.806,1027.088 1319.365,1026.314 1319.365,1025.326L1319.365,1013.561L1290.313,1013.561L1290.313,1025.326C1290.313,1026.314 1289.886,1027.088 1289.033,1027.646C1288.179,1028.204 1286.898,1028.483 1285.191,1028.483Z" style="fill:white;fill-rule:nonzero;"/>
                </g>
                <g transform="matrix(1.5019,0,0,1.304363,-2104.751816,-320.068362)">
                    <rect x="1596" y="948" width="47" height="64" style="fill:white;"/>
                </g>
                <g transform="matrix(1.157873,0,0,2.631529,-1126.719269,-1700.430592)">
                    <path d="M1286.487,1026.164C1284.421,1026.164 1282.689,1025.467 1281.589,1024.954C1280.489,1024.441 1279.939,1023.729 1279.939,1022.82L1279.939,997.212C1279.939,996.273 1280.506,995.562 1281.639,995.078C1282.773,994.594 1284.421,994.44 1286.487,994.44L1310.539,994.44C1318.273,994.44 1324.239,995.203 1328.439,996.904C1332.639,998.605 1334.739,1000.981 1334.739,1004.032C1334.739,1007.083 1332.639,1009.466 1328.439,1011.182C1324.239,1012.898 1318.273,1013.756 1310.539,1013.756L1292.739,1013.756L1292.739,1022.82C1292.739,1023.729 1292.206,1024.881 1291.139,1025.394C1290.073,1025.907 1288.621,1026.164 1286.487,1026.164ZM1292.739,1009.312L1308.539,1009.312C1313.073,1009.312 1316.506,1008.865 1318.839,1007.97C1321.173,1007.075 1322.339,1005.763 1322.339,1004.032C1322.339,1002.301 1321.173,1000.996 1318.839,1000.116C1316.506,999.236 1313.073,998.796 1308.539,998.796L1292.739,998.796L1292.739,1009.312Z" style="fill:white;fill-rule:nonzero;"/>
                </g>
                <g transform="matrix(1.157873,0,0,2.421007,-1184.426928,-1491.232188)">
                    <path d="M1305.489,1031.46C1301.662,1031.46 1297.762,1031.218 1293.789,1030.734C1289.817,1030.251 1286.17,1029.508 1282.848,1028.507C1281.475,1028.092 1280.555,1027.6 1280.085,1027.03C1279.616,1026.46 1279.507,1025.89 1279.76,1025.32C1280.013,1024.75 1280.555,1024.267 1281.385,1023.869C1282.216,1023.472 1283.227,1023.239 1284.419,1023.17C1285.61,1023.101 1286.928,1023.256 1288.373,1023.636C1291.045,1024.362 1293.753,1024.914 1296.498,1025.294C1299.242,1025.674 1302.167,1025.864 1305.273,1025.864C1308.306,1025.864 1310.906,1025.605 1313.073,1025.087C1315.239,1024.569 1316.9,1023.843 1318.056,1022.911C1319.212,1021.978 1319.789,1020.89 1319.789,1019.647C1319.789,1017.712 1318.562,1016.149 1316.106,1014.958C1313.65,1013.766 1310.292,1013.17 1306.031,1013.17C1303.72,1013.17 1301.481,1013.352 1299.314,1013.714C1297.148,1014.077 1295.017,1014.707 1292.923,1015.605C1292.273,1015.882 1291.442,1016.149 1290.431,1016.409C1289.42,1016.668 1288.337,1016.797 1287.181,1016.797C1285.375,1016.797 1284.003,1016.573 1283.064,1016.124C1282.125,1015.675 1281.656,1015.053 1281.656,1014.258L1281.656,997.316C1281.656,996.383 1282.18,995.667 1283.227,995.166C1284.274,994.665 1285.773,994.414 1287.723,994.414L1323.364,994.414C1325.314,994.414 1326.813,994.648 1327.86,995.114C1328.907,995.58 1329.431,996.262 1329.431,997.161C1329.431,998.024 1328.907,998.698 1327.86,999.181C1326.813,999.665 1325.314,999.907 1323.364,999.907L1295.198,999.907L1295.198,1011.512L1291.623,1011.512C1293.5,1010.303 1295.992,1009.371 1299.098,1008.714C1302.203,1008.058 1305.598,1007.73 1309.281,1007.73C1314.12,1007.73 1318.327,1008.222 1321.902,1009.207C1325.477,1010.191 1328.257,1011.555 1330.244,1013.3C1332.23,1015.044 1333.223,1017.073 1333.223,1019.388C1333.223,1021.771 1332.103,1023.869 1329.864,1025.683C1327.625,1027.496 1324.43,1028.912 1320.277,1029.931C1316.124,1030.95 1311.195,1031.46 1305.489,1031.46Z" style="fill:rgb(177,171,245);fill-rule:nonzero;"/>
                </g>
            </g>
        </g>
        <g id="quiz">
        </g>
        <g id="sim">
        </g>
        <g id="audio">
        </g>
    </g>
</svg>
