<?xml version="1.0" encoding="UTF-8" standalone="no"?>
<!DOCTYPE svg PUBLIC "-//W3C//DTD SVG 1.1//EN" "http://www.w3.org/Graphics/SVG/1.1/DTD/svg11.dtd">
<svg width="100%" height="100%" viewBox="0 0 269 203" version="1.1" xmlns="http://www.w3.org/2000/svg" xmlns:xlink="http://www.w3.org/1999/xlink" xml:space="preserve" xmlns:serif="http://www.serif.com/" style="fill-rule:evenodd;clip-rule:evenodd;stroke-linecap:round;stroke-linejoin:round;stroke-miterlimit:1.5;">
    <g transform="matrix(1,0,0,1,-188.75,-854.75)">
        <g id="img">
            <path d="M451,889.668L451,1022.332C451,1038.154 438.154,1051 422.332,1051L223.668,1051C207.846,1051 195,1038.154 195,1022.332L195,889.668C195,873.846 207.846,861 223.668,861L422.332,861C438.154,861 451,873.846 451,889.668Z" style="fill:rgb(177,171,245);stroke:rgb(68,56,200);stroke-width:12.5px;"/>
            <path d="M214.983,1049.658C208.735,1047.672 203.414,1043.601 199.837,1038.264L202,1037C213.566,1031.81 224.333,983.333 245,980C265.667,976.667 284.833,1013.167 303,1013C318.733,1012.856 339.471,987.534 355,985C379.313,981.033 422.614,1022.557 443.36,1041.356C440.249,1048.072 439.615,1046.384 432.677,1049.073L214.983,1049.658Z" style="fill:white;"/>
            <circle cx="257" cy="923" r="24" style="fill:white;stroke:rgb(68,56,200);stroke-width:12.5px;"/>
            <path d="M440.636,1040.725C433.737,1028.872 395.51,998.559 374.394,986.812C364.703,981.422 353.311,980.833 343.802,987.157C331.389,995.411 315.991,1013.67 303,1013C290.593,1012.36 278.935,994.877 265.922,985.557C260.849,981.923 249.936,979.3 242.331,984.784C224.383,997.727 205.968,1037.163 208,1044" style="fill:none;stroke:rgb(68,56,200);stroke-width:12.5px;"/>
            <path d="M451,889.668L451,1022.332C451,1038.154 438.154,1051 422.332,1051L223.668,1051C207.846,1051 195,1038.154 195,1022.332L195,889.668C195,873.846 207.846,861 223.668,861L422.332,861C438.154,861 451,873.846 451,889.668Z" style="fill:none;stroke:rgb(68,56,200);stroke-width:12.5px;"/>
        </g>
        <g id="video">
        </g>
        <g id="pdf">
        </g>
        <g id="h5p">
        </g>
        <g id="quiz">
        </g>
        <g id="sim">
        </g>
        <g id="audio">
        </g>
    </g>
</svg>
