<?xml version="1.0" encoding="UTF-8" standalone="no"?>
<!DOCTYPE svg PUBLIC "-//W3C//DTD SVG 1.1//EN" "http://www.w3.org/Graphics/SVG/1.1/DTD/svg11.dtd">
<svg width="100%" height="100%" viewBox="0 0 269 203" version="1.1" xmlns="http://www.w3.org/2000/svg" xmlns:xlink="http://www.w3.org/1999/xlink" xml:space="preserve" xmlns:serif="http://www.serif.com/" style="fill-rule:evenodd;clip-rule:evenodd;stroke-linecap:round;stroke-linejoin:round;stroke-miterlimit:1.5;">
    <g transform="matrix(1,0,0,1,-1174.92874,-854.75)">
        <g id="pdf" transform="matrix(1,0,0,1,986.17874,0)">
            <path d="M451,889.668L451,1022.332C451,1038.154 438.154,1051 422.332,1051L223.668,1051C207.846,1051 195,1038.154 195,1022.332L195,889.668C195,873.846 207.846,861 223.668,861L422.332,861C438.154,861 451,873.846 451,889.668Z" style="fill:white;stroke:rgb(68,56,200);stroke-width:12.5px;"/>
            <g transform="matrix(1,0,0,0.321053,0,708.573684)">
                <path d="M451,889.668L451,1022.332C451,1038.154 446.876,1051 441.796,1051L204.204,1051C199.124,1051 195,1038.154 195,1022.332L195,889.668C195,873.846 199.124,861 204.204,861L441.796,861C446.876,861 451,873.846 451,889.668Z" style="fill:rgb(177,171,245);"/>
            </g>
            <g transform="matrix(0.22624,0,0,1,64.232352,0.95723)">
                <path d="M841,898L1093,898" style="fill:none;stroke:rgb(68,56,200);stroke-width:17.24px;"/>
            </g>
            <g transform="matrix(0.543651,0,0,1,-202.710317,28.975224)">
                <path d="M841,898L1093,898" style="fill:none;stroke:rgb(68,56,200);stroke-width:15.53px;"/>
            </g>
            <g transform="matrix(0.543651,0,0,1,-202.710317,56.936273)">
                <path d="M841,898L1093,898" style="fill:none;stroke:rgb(68,56,200);stroke-width:15.53px;"/>
            </g>
            <g transform="matrix(1,0,0,1,-981.83937,5)">
                <g transform="matrix(50,0,0,50,1255.43937,1029.65)">
                    <path d="M0.141,0.008C0.12,0.008 0.104,0.002 0.093,-0.009C0.083,-0.021 0.077,-0.037 0.077,-0.058L0.077,-0.64C0.077,-0.661 0.083,-0.678 0.094,-0.689C0.105,-0.7 0.121,-0.705 0.142,-0.705L0.383,-0.705C0.46,-0.705 0.52,-0.686 0.562,-0.647C0.604,-0.608 0.625,-0.554 0.625,-0.485C0.625,-0.416 0.604,-0.361 0.562,-0.323C0.52,-0.284 0.46,-0.264 0.383,-0.264L0.205,-0.264L0.205,-0.058C0.205,-0.037 0.2,-0.021 0.189,-0.009C0.178,0.002 0.162,0.008 0.141,0.008ZM0.205,-0.365L0.363,-0.365C0.408,-0.365 0.443,-0.375 0.466,-0.396C0.489,-0.416 0.501,-0.446 0.501,-0.485C0.501,-0.524 0.489,-0.554 0.466,-0.574C0.443,-0.594 0.408,-0.604 0.363,-0.604L0.205,-0.604L0.205,-0.365Z" style="fill:white;fill-rule:nonzero;"/>
                </g>
                <g transform="matrix(50,0,0,50,1288.03937,1029.65)">
                    <path d="M0.145,-0C0.123,-0 0.106,-0.006 0.095,-0.018C0.083,-0.029 0.077,-0.046 0.077,-0.068L0.077,-0.637C0.077,-0.659 0.083,-0.676 0.095,-0.688C0.106,-0.699 0.123,-0.705 0.145,-0.705L0.339,-0.705C0.457,-0.705 0.548,-0.675 0.613,-0.614C0.677,-0.553 0.709,-0.466 0.709,-0.353C0.709,-0.296 0.701,-0.246 0.684,-0.203C0.668,-0.159 0.644,-0.122 0.613,-0.092C0.581,-0.062 0.542,-0.039 0.496,-0.024C0.451,-0.008 0.398,-0 0.339,-0L0.145,-0ZM0.205,-0.106L0.331,-0.106C0.372,-0.106 0.408,-0.111 0.439,-0.121C0.469,-0.132 0.494,-0.147 0.514,-0.168C0.535,-0.188 0.55,-0.214 0.56,-0.244C0.57,-0.276 0.575,-0.312 0.575,-0.353C0.575,-0.436 0.555,-0.497 0.514,-0.538C0.473,-0.579 0.412,-0.599 0.331,-0.599L0.205,-0.599L0.205,-0.106Z" style="fill:white;fill-rule:nonzero;"/>
                </g>
                <g transform="matrix(50,0,0,50,1326.13937,1029.65)">
                    <path d="M0.143,0.008C0.122,0.008 0.106,0.002 0.095,-0.009C0.083,-0.021 0.077,-0.038 0.077,-0.06L0.077,-0.637C0.077,-0.659 0.083,-0.676 0.095,-0.688C0.106,-0.699 0.123,-0.705 0.145,-0.705L0.494,-0.705C0.511,-0.705 0.524,-0.701 0.533,-0.692C0.542,-0.683 0.546,-0.671 0.546,-0.655C0.546,-0.638 0.542,-0.626 0.533,-0.617C0.524,-0.608 0.511,-0.603 0.494,-0.603L0.205,-0.603L0.205,-0.404L0.473,-0.404C0.49,-0.404 0.503,-0.4 0.512,-0.391C0.521,-0.382 0.525,-0.37 0.525,-0.354C0.525,-0.337 0.521,-0.325 0.512,-0.316C0.503,-0.306 0.49,-0.302 0.473,-0.302L0.205,-0.302L0.205,-0.06C0.205,-0.015 0.184,0.008 0.143,0.008Z" style="fill:white;fill-rule:nonzero;"/>
                </g>
                <g transform="matrix(50,0,0,50,1354.23937,1029.65)">
                </g>
            </g>
            <path d="M451,889.668L451,1022.332C451,1038.154 438.154,1051 422.332,1051L223.668,1051C207.846,1051 195,1038.154 195,1022.332L195,889.668C195,873.846 207.846,861 223.668,861L422.332,861C438.154,861 451,873.846 451,889.668Z" style="fill:none;stroke:rgb(68,56,200);stroke-width:12.5px;"/>
        </g>
    </g>
</svg>
