<?xml version="1.0" encoding="UTF-8" standalone="no"?>
<!DOCTYPE svg PUBLIC "-//W3C//DTD SVG 1.1//EN" "http://www.w3.org/Graphics/SVG/1.1/DTD/svg11.dtd">
<svg width="100%" height="100%" viewBox="0 0 269 203" version="1.1" xmlns="http://www.w3.org/2000/svg" xmlns:xlink="http://www.w3.org/1999/xlink" xml:space="preserve" xmlns:serif="http://www.serif.com/" style="fill-rule:evenodd;clip-rule:evenodd;stroke-linecap:round;stroke-linejoin:round;stroke-miterlimit:1.5;">
    <g transform="matrix(1,0,0,1,-1806.742979,-854.75)">
        <g id="quiz" transform="matrix(1,0,0,1,1617.992979,0)">
            <path d="M451,889.668L451,1022.332C451,1038.154 438.154,1051 422.332,1051L223.668,1051C207.846,1051 195,1038.154 195,1022.332L195,889.668C195,873.846 207.846,861 223.668,861L422.332,861C438.154,861 451,873.846 451,889.668Z" style="fill:white;stroke:rgb(68,56,200);stroke-width:12.5px;"/>
            <g transform="matrix(1,0,0,1,0,2)">
                <g transform="matrix(1,0,0,1,8.580315,-29.75)">
                    <g transform="matrix(1,0,0,1,-1617.992979,0)">
                        <circle cx="1870.582" cy="994.25" r="5.75" style="fill:rgb(177,171,245);"/>
                    </g>
                    <g transform="matrix(1,0,0,2,-1631,-1000)">
                        <path d="M2013,997.125C2013,998.712 2010.424,1000 2007.25,1000L1900.75,1000C1897.576,1000 1895,998.712 1895,997.125C1895,995.538 1897.576,994.25 1900.75,994.25L2007.25,994.25C2010.424,994.25 2013,995.538 2013,997.125Z" style="fill:rgb(68,56,200);"/>
                    </g>
                </g>
                <g transform="matrix(1,0,0,1,8.580315,-8.75)">
                    <g transform="matrix(1,0,0,1,-1617.992979,0)">
                        <circle cx="1870.582" cy="994.25" r="5.75" style="fill:rgb(177,171,245);"/>
                    </g>
                    <g transform="matrix(1,0,0,2,-1631,-1000)">
                        <path d="M2013,997.125C2013,998.712 2010.424,1000 2007.25,1000L1900.75,1000C1897.576,1000 1895,998.712 1895,997.125C1895,995.538 1897.576,994.25 1900.75,994.25L2007.25,994.25C2010.424,994.25 2013,995.538 2013,997.125Z" style="fill:rgb(68,56,200);"/>
                    </g>
                </g>
                <g transform="matrix(1,0,0,1,8.580315,13.25)">
                    <g transform="matrix(1,0,0,1,-1617.992979,0)">
                        <circle cx="1870.582" cy="994.25" r="5.75" style="fill:rgb(177,171,245);"/>
                    </g>
                    <g transform="matrix(1,0,0,2,-1631,-1000)">
                        <path d="M2013,997.125C2013,998.712 2010.424,1000 2007.25,1000L1900.75,1000C1897.576,1000 1895,998.712 1895,997.125C1895,995.538 1897.576,994.25 1900.75,994.25L2007.25,994.25C2010.424,994.25 2013,995.538 2013,997.125Z" style="fill:rgb(68,56,200);"/>
                    </g>
                </g>
                <g transform="matrix(1,0,0,1,-981.83937,-97.25)">
                    <g transform="matrix(54.166667,0,0,54.166667,1239.568537,1032.620833)">
                        <path d="M0.663,0.113C0.672,0.128 0.676,0.141 0.674,0.153C0.672,0.165 0.667,0.175 0.658,0.183C0.649,0.192 0.639,0.197 0.626,0.2C0.613,0.202 0.601,0.201 0.588,0.196C0.575,0.191 0.565,0.181 0.556,0.167L0.487,0.056C0.478,0.041 0.465,0.029 0.45,0.022C0.434,0.014 0.415,0.01 0.392,0.01L0.491,-0.029C0.522,-0.029 0.547,-0.024 0.566,-0.013C0.585,-0.002 0.603,0.018 0.62,0.045L0.663,0.113ZM0.393,0.01C0.325,0.01 0.266,-0.005 0.214,-0.035C0.164,-0.065 0.124,-0.107 0.096,-0.162C0.068,-0.216 0.054,-0.28 0.054,-0.353C0.054,-0.408 0.062,-0.458 0.078,-0.503C0.094,-0.547 0.117,-0.585 0.146,-0.617C0.176,-0.648 0.212,-0.672 0.254,-0.69C0.295,-0.707 0.342,-0.715 0.393,-0.715C0.462,-0.715 0.521,-0.7 0.572,-0.67C0.623,-0.641 0.662,-0.599 0.69,-0.545C0.718,-0.491 0.732,-0.427 0.732,-0.354C0.732,-0.299 0.724,-0.249 0.708,-0.204C0.692,-0.159 0.669,-0.121 0.64,-0.089C0.61,-0.057 0.574,-0.033 0.532,-0.015C0.491,0.002 0.444,0.01 0.393,0.01ZM0.393,-0.1C0.436,-0.1 0.473,-0.11 0.504,-0.13C0.534,-0.15 0.557,-0.179 0.574,-0.217C0.59,-0.255 0.598,-0.3 0.598,-0.353C0.598,-0.433 0.58,-0.495 0.544,-0.539C0.509,-0.583 0.458,-0.605 0.393,-0.605C0.35,-0.605 0.314,-0.595 0.283,-0.576C0.252,-0.556 0.229,-0.527 0.212,-0.489C0.196,-0.452 0.188,-0.406 0.188,-0.353C0.188,-0.274 0.206,-0.212 0.242,-0.167C0.278,-0.122 0.328,-0.1 0.393,-0.1Z" style="fill:rgb(177,171,245);fill-rule:nonzero;"/>
                    </g>
                    <g transform="matrix(54.166667,0,0,54.166667,1282.08937,1032.620833)">
                        <path d="M0.37,0.01C0.321,0.01 0.278,0.004 0.241,-0.009C0.204,-0.022 0.173,-0.041 0.148,-0.066C0.123,-0.091 0.104,-0.122 0.091,-0.159C0.078,-0.196 0.072,-0.24 0.072,-0.289L0.072,-0.648C0.072,-0.67 0.077,-0.686 0.088,-0.697C0.099,-0.708 0.115,-0.713 0.136,-0.713C0.157,-0.713 0.173,-0.708 0.183,-0.697C0.195,-0.686 0.2,-0.67 0.2,-0.648L0.2,-0.29C0.2,-0.227 0.214,-0.179 0.243,-0.147C0.273,-0.116 0.315,-0.1 0.37,-0.1C0.425,-0.1 0.467,-0.116 0.496,-0.147C0.525,-0.179 0.539,-0.227 0.539,-0.29L0.539,-0.648C0.539,-0.67 0.545,-0.686 0.555,-0.697C0.567,-0.708 0.582,-0.713 0.603,-0.713C0.623,-0.713 0.638,-0.708 0.649,-0.697C0.66,-0.686 0.666,-0.67 0.666,-0.648L0.666,-0.289C0.666,-0.224 0.655,-0.169 0.633,-0.124C0.61,-0.079 0.577,-0.046 0.533,-0.024C0.489,-0.001 0.435,0.01 0.37,0.01Z" style="fill:rgb(177,171,245);fill-rule:nonzero;"/>
                    </g>
                    <g transform="matrix(54.166667,0,0,54.166667,1322.06437,1032.620833)">
                        <path d="M0.141,0.008C0.12,0.008 0.104,0.002 0.093,-0.009C0.083,-0.021 0.077,-0.037 0.077,-0.058L0.077,-0.647C0.077,-0.668 0.083,-0.685 0.093,-0.696C0.104,-0.707 0.12,-0.713 0.141,-0.713C0.162,-0.713 0.177,-0.707 0.189,-0.696C0.2,-0.685 0.205,-0.668 0.205,-0.647L0.205,-0.058C0.205,-0.037 0.2,-0.021 0.189,-0.009C0.178,0.002 0.162,0.008 0.141,0.008Z" style="fill:rgb(177,171,245);fill-rule:nonzero;"/>
                    </g>
                    <g transform="matrix(54.166667,0,0,54.166667,1337.33937,1032.620833)">
                        <path d="M0.106,-0C0.089,-0 0.076,-0.003 0.066,-0.01C0.055,-0.017 0.048,-0.026 0.044,-0.037C0.041,-0.049 0.041,-0.062 0.044,-0.076C0.048,-0.091 0.056,-0.106 0.067,-0.121L0.449,-0.639L0.449,-0.598L0.096,-0.598C0.077,-0.598 0.063,-0.603 0.053,-0.612C0.044,-0.621 0.039,-0.635 0.039,-0.652C0.039,-0.669 0.044,-0.683 0.053,-0.692C0.063,-0.7 0.077,-0.705 0.096,-0.705L0.51,-0.705C0.527,-0.705 0.54,-0.702 0.55,-0.695C0.561,-0.688 0.568,-0.679 0.572,-0.668C0.575,-0.657 0.575,-0.644 0.572,-0.629C0.568,-0.614 0.56,-0.599 0.549,-0.584L0.167,-0.067L0.167,-0.107L0.535,-0.107C0.554,-0.107 0.568,-0.102 0.578,-0.093C0.587,-0.085 0.592,-0.071 0.592,-0.054C0.592,-0.037 0.587,-0.023 0.578,-0.014C0.568,-0.005 0.554,-0 0.535,-0L0.106,-0Z" style="fill:rgb(177,171,245);fill-rule:nonzero;"/>
                    </g>
                    <g transform="matrix(54.166667,0,0,54.166667,1370.110203,1032.620833)">
                    </g>
                </g>
            </g>
        </g>
    </g>
</svg>
